<svg width="566" height="399" viewBox="0 0 566 399" fill="none" xmlns="http://www.w3.org/2000/svg">
<g clipPath="url(#clip0_262_3220)">
<path d="M258 18.9451C272.21 14.2225 287.79 14.2225 302 19C295.551 11.4769 288.075 5.16185 279.971 0C271.868 5.16185 264.392 11.4769 258 18.9451Z" fill="#153E78"/>
<path d="M258 18.9451C272.21 14.2225 287.79 14.2225 302 19C295.551 11.4769 288.075 5.16185 279.971 0C271.868 5.16185 264.392 11.4769 258 18.9451Z" stroke="#153E78" stroke-width="6" stroke-miterlimit="10" stroke-linecap="round" stroke-linejoin="round"/>
<path d="M303.582 239.326C303.582 249.865 301.372 259.951 297.292 270.207C297.179 270.547 297.009 270.887 296.839 271.283C292.759 281.029 286.923 290.775 279.84 296.498C272.531 290.605 266.581 280.463 262.445 270.433C262.388 270.377 262.388 270.32 262.331 270.207C258.252 259.951 256.042 249.865 256.042 239.326C256.042 236.096 256.268 232.923 256.665 229.636C258.025 218.644 265.504 205.385 274.854 203.968C274.967 203.968 275.08 203.911 275.194 203.911C278.14 203.572 281.143 203.571 284.09 203.855C284.203 203.855 284.373 203.855 284.486 203.911C294.006 205.101 301.655 218.53 303.015 229.636C303.355 232.923 303.582 236.096 303.582 239.326Z" fill="#F2CC92"/>
<path d="M303.582 239.326C303.582 249.865 301.372 259.951 297.292 270.207C297.179 270.547 297.009 270.887 296.839 271.283C292.759 281.029 286.923 290.775 279.84 296.498C272.531 290.605 266.581 280.463 262.445 270.433C262.388 270.377 262.388 270.32 262.331 270.207C258.252 259.951 256.042 249.865 256.042 239.326C256.042 236.096 256.268 232.923 256.665 229.636C258.025 218.644 265.504 205.385 274.854 203.968C274.967 203.968 275.08 203.911 275.194 203.911C278.14 203.572 281.143 203.571 284.09 203.855C284.203 203.855 284.373 203.855 284.486 203.911C294.006 205.101 301.655 218.53 303.015 229.636C303.355 232.923 303.582 236.096 303.582 239.326Z" stroke="#153E78" stroke-width="6" stroke-miterlimit="10" stroke-linecap="round" stroke-linejoin="round"/>
<path d="M538.5 349.5C533.648 345.349 528.828 345.336 525.07 340.174C518.336 330.923 530.518 320.937 525.07 310.874C513.628 289.739 482.498 322.549 470.95 340.174C464.949 337.34 458.269 335.81 451.192 335.81C448.079 335.81 445.078 336.094 442.191 336.717C442.191 336.434 442.191 336.15 442.191 335.81C442.191 321.359 432.001 309.288 418.471 306.397C413.263 288.546 396.845 275.454 377.314 275.454C361.067 275.454 346.914 284.522 339.668 297.84C334.629 293.136 327.893 290.189 320.477 290.189C316.231 290.189 312.211 291.152 308.588 292.796C304.173 285.939 300.266 278.741 296.926 271.147C288.661 252.445 284.076 231.59 284.076 209.714C284.076 207.731 284.132 205.804 284.189 203.82C285.151 178.488 292.228 154.742 304.059 134H255.091C266.922 154.742 273.999 178.544 274.961 203.877C275.018 205.804 275.074 207.731 275.074 209.658C275.074 231.193 270.602 251.765 262.563 270.354C257.298 282.482 250.562 293.816 242.466 304.074C235.616 295.573 225.143 290.189 213.425 290.189C201.649 290.189 191.176 295.63 184.326 304.13C178.835 300.9 172.495 299.03 165.645 299.03C154.662 299.03 144.755 303.904 138.018 311.555C128.055 296.763 111.185 287.015 92.0499 287.015C61.4798 287.015 36.6841 311.838 36.6841 342.441C36.6841 342.611 36.6841 342.781 36.6841 342.951C15.9644 353.492 1.41529 374.461 0 399H133.603H407.545C407.545 399 574.985 460.225 566 399C562.789 377.121 555.303 363.877 538.5 349.5Z" fill="#F0F1F4"/>
<path d="M277.5 204.126C272.278 204.797 268.111 212.176 267.333 218.27C267.111 220.059 267 221.792 267 223.581C267 229.395 268.222 234.93 270.444 240.576C272.667 246.111 276 251.757 280 255C284.056 251.757 287.333 246.111 289.556 240.576C291.778 234.93 293 229.395 293 223.581C293 221.792 292.889 220.059 292.667 218.27C291.889 212.12 287.722 204.797 282.5 204.126C280.889 203.958 279.167 203.958 277.5 204.126Z" fill="#CF8B26"/>
<path d="M277.5 204.126C272.278 204.797 268.111 212.176 267.333 218.27C267.111 220.059 267 221.792 267 223.581C267 229.395 268.222 234.93 270.444 240.576C272.667 246.111 276 251.757 280 255C284.056 251.757 287.333 246.111 289.556 240.576C291.778 234.93 293 229.395 293 223.581C293 221.792 292.889 220.059 292.667 218.27C291.889 212.12 287.722 204.797 282.5 204.126C280.889 203.958 279.167 203.958 277.5 204.126Z" stroke="#153E78" stroke-width="6" stroke-miterlimit="10" stroke-linecap="round" stroke-linejoin="round"/>
<path d="M211.563 116.834L193 124V89.0707L250 45V111.078L236.22 118.244C228.874 114.407 219.934 113.617 211.563 116.834Z" fill="#609AED"/>
<path d="M187.052 134C181.317 125.625 178 115.722 178 105.141C178 91.7294 183.229 79.45 191.944 70C200.659 79.45 205.944 91.7294 206 105.141C206 115.779 202.683 125.625 197.004 134H187.052Z" fill="#609AED"/>
<path opacity="0.72" d="M193 124L210.934 117C211.155 112.222 210.823 107.333 209.937 102.444C208.609 95.1111 206.118 88.2222 202.686 82L193 89.6111V124Z" fill="#1E56A5"/>
<path opacity="0.23" d="M195.389 98.8329L250 56.6243V45L193 89.0143V124L195.389 123.097V98.8329Z" fill="#EDB460"/>
<path opacity="0.72" d="M227.157 115.978C230.313 116.492 233.298 117.518 236.11 119L250 111.76V45L225.779 63.7565C224.574 70.9969 224 78.5794 224 86.3898C224.057 96.7088 225.148 106.686 227.157 115.978Z" fill="#1E56A5"/>
<path d="M211.563 116.834L193 124V89.0707L250 45V111.078L236.22 118.244C228.874 114.407 219.934 113.617 211.563 116.834Z" stroke="#153E78" stroke-width="6" stroke-miterlimit="10" stroke-linecap="round" stroke-linejoin="round"/>
<path d="M187.052 134C181.317 125.625 178 115.722 178 105.141C178 91.7294 183.229 79.45 191.944 70C200.659 79.45 205.944 91.7294 206 105.141C206 115.779 202.683 125.625 197.004 134H187.052Z" fill="#609AED"/>
<path opacity="0.23" d="M191.035 70C191.709 70.735 192.382 71.5265 193 72.318C187.161 81.364 183.793 91.9929 183.737 103.3C183.737 114.495 185.421 124.954 191.147 134H185.982C180.312 125.633 177 115.739 177 105.166C177.056 91.7102 182.333 79.4417 191.035 70Z" fill="#EDB460"/>
<path opacity="0.32" d="M191.313 70C191.542 70.2261 191.771 70.5088 192 70.7915C185.302 80.5724 181.466 92.0495 181.408 104.375C181.408 115.06 184.328 125.124 189.424 134H186.16C180.378 125.633 177 115.739 177 105.166C177.057 91.7102 182.439 79.4417 191.313 70Z" fill="#EDB460"/>
<path opacity="0.37" d="M206 105.11C206 91.7103 200.723 79.4982 191.965 70C191.291 70.735 190.618 71.5265 190 72.318C195.839 81.364 199.207 91.9929 199.263 103.3C199.263 114.495 196.007 124.954 190.281 134H197.018C202.688 125.576 206 115.682 206 105.11Z" fill="#1E56A5"/>
<path opacity="0.72" d="M206 105.11C206 91.7103 200.618 79.4982 191.687 70C191.458 70.2261 191.229 70.5088 191 70.7915C197.698 80.5724 201.534 92.0495 201.592 104.375C201.592 115.06 198.672 125.124 193.576 134H196.84C202.622 125.576 206 115.682 206 105.11Z" fill="#1E56A5"/>
<path opacity="0.37" d="M191.965 70C191.291 70.735 190.618 71.5265 190 72.318C195.839 81.364 199.207 91.9929 199.263 103.3C199.263 114.495 196.007 124.954 190.281 134H197.018C202.688 125.633 206 115.739 206 105.166C205.944 91.7102 200.667 79.4417 191.965 70Z" fill="#1E56A5"/>
<path opacity="0.72" d="M191.687 70C191.458 70.2261 191.229 70.5088 191 70.7915C197.698 80.5724 201.534 92.0495 201.592 104.375C201.592 115.06 198.672 125.124 193.576 134H196.84C202.622 125.633 206 115.739 206 105.166C205.943 91.7102 200.561 79.4417 191.687 70Z" fill="#1E56A5"/>
<path d="M198 80C195.898 76.4088 193.398 73.0939 190.5 70C187.602 73.0387 185.102 76.4088 183 80H198Z" fill="#153E78"/>
<path d="M187.052 134C181.317 125.625 178 115.722 178 105.141C178 91.7294 183.229 79.45 191.944 70C200.659 79.45 205.944 91.7294 206 105.141C206 115.779 202.683 125.625 197.004 134H187.052Z" stroke="#153E78" stroke-width="6" stroke-miterlimit="10" stroke-linecap="round" stroke-linejoin="round"/>
<path d="M261 177.304C261 177.304 254.117 178.769 244.219 188.573C240.636 192.123 235.004 199.335 230.852 204.801C229.145 207.055 225.505 205.928 225.448 203.111L224.083 143.102C223.798 141.412 224.254 139.665 225.334 138.369L240.238 120L261 177.304Z" fill="#609AED"/>
<path opacity="0.32" d="M225.313 205C228.505 204.545 230.913 201.761 230.969 198.466L231.585 142.216C231.305 140.511 231.753 138.75 232.817 137.443L242 125.795L239.928 120L225.313 138.466C224.25 139.83 223.802 141.534 224.082 143.239L225.313 205Z" fill="#EDB460"/>
<path opacity="0.72" d="M261 177.848L240.245 120L232 130.295C236.435 147.36 243.429 164.708 252.869 182C257.873 178.53 261 177.848 261 177.848Z" fill="#1E56A5"/>
<path d="M261 177.304C261 177.304 254.117 178.769 244.219 188.573C240.636 192.123 235.004 199.335 230.852 204.801C229.145 207.055 225.505 205.928 225.448 203.111L224.083 143.102C223.798 141.412 224.254 139.665 225.334 138.369L240.238 120L261 177.304Z" stroke="#153E78" stroke-width="6" stroke-miterlimit="10" stroke-linecap="round" stroke-linejoin="round"/>
<path d="M182 126H200" stroke="#153E78" stroke-width="4" stroke-miterlimit="10" stroke-linecap="round" stroke-linejoin="round"/>
<path d="M187.052 134C181.317 125.625 178 115.722 178 105.141C178 91.7294 183.229 79.45 191.944 70C200.659 79.45 205.944 91.7294 206 105.141C206 115.779 202.683 125.625 197.004 134H187.052Z" fill="#609AED"/>
<path d="M187.052 134C181.317 125.625 178 115.722 178 105.141C178 91.7294 183.229 79.45 191.944 70C200.659 79.45 205.944 91.7294 206 105.141C206 115.779 202.683 125.625 197.004 134H187.052Z" fill="#609AED"/>
<path opacity="0.23" d="M191.035 70C191.709 70.735 192.382 71.5265 193 72.318C187.161 81.364 183.793 91.9929 183.737 103.3C183.737 114.495 185.421 124.954 191.147 134H185.982C180.312 125.633 177 115.739 177 105.166C177.056 91.7102 182.333 79.4417 191.035 70Z" fill="#EDB460"/>
<path opacity="0.32" d="M191.313 70C191.542 70.2261 191.771 70.5088 192 70.7915C185.302 80.5724 181.466 92.0495 181.408 104.375C181.408 115.06 184.328 125.124 189.424 134H186.16C180.378 125.633 177 115.739 177 105.166C177.057 91.7102 182.439 79.4417 191.313 70Z" fill="#EDB460"/>
<path opacity="0.37" d="M206 105.11C206 91.7103 200.723 79.4982 191.965 70C191.291 70.735 190.618 71.5265 190 72.318C195.839 81.364 199.207 91.9929 199.263 103.3C199.263 114.495 196.007 124.954 190.281 134H197.018C202.688 125.576 206 115.682 206 105.11Z" fill="#1E56A5"/>
<path opacity="0.72" d="M206 105.11C206 91.7103 200.618 79.4982 191.687 70C191.458 70.2261 191.229 70.5088 191 70.7915C197.698 80.5724 201.534 92.0495 201.592 104.375C201.592 115.06 198.672 125.124 193.576 134H196.84C202.622 125.576 206 115.682 206 105.11Z" fill="#1E56A5"/>
<path opacity="0.37" d="M191.965 70C191.291 70.735 190.618 71.5265 190 72.318C195.839 81.364 199.207 91.9929 199.263 103.3C199.263 114.495 196.007 124.954 190.281 134H197.018C202.688 125.633 206 115.739 206 105.166C205.944 91.7102 200.667 79.4417 191.965 70Z" fill="#1E56A5"/>
<path opacity="0.72" d="M191.687 70C191.458 70.2261 191.229 70.5088 191 70.7915C197.698 80.5724 201.534 92.0495 201.592 104.375C201.592 115.06 198.672 125.124 193.576 134H196.84C202.622 125.633 206 115.739 206 105.166C205.943 91.7102 200.561 79.4417 191.687 70Z" fill="#1E56A5"/>
<path d="M199 80C196.898 76.4088 194.398 73.0939 191.5 70C188.602 73.0387 186.102 76.4088 184 80H199Z" fill="#153E78"/>
<path d="M187.052 134C181.317 125.625 178 115.722 178 105.141C178 91.7294 183.229 79.45 191.944 70C200.659 79.45 205.944 91.7294 206 105.141C206 115.779 202.683 125.625 197.004 134H187.052Z" stroke="#153E78" stroke-width="6" stroke-miterlimit="10" stroke-linecap="round" stroke-linejoin="round"/>
<path d="M182 126H200" stroke="#153E78" stroke-width="4" stroke-miterlimit="10" stroke-linecap="round" stroke-linejoin="round"/>
<path d="M344.762 116.834L363 124V89.0707L307 45V111.078L320.538 118.244C327.755 114.407 336.538 113.617 344.762 116.834Z" fill="#609AED"/>
<path opacity="0.72" d="M363 124L345.066 117C344.845 112.222 345.177 107.333 346.063 102.444C347.391 95.1111 349.882 88.2222 353.314 82L363 89.6111V124Z" fill="#1E56A5"/>
<path opacity="0.23" d="M360.706 98.8329L307 56.6243V45L363 89.0143V124L360.706 123.097V98.8329Z" fill="#EDB460"/>
<path opacity="0.72" d="M328.965 115.978C325.929 116.492 323.06 117.518 320.355 119L307 111.76V45L330.289 63.7565C331.448 70.9969 332 78.5794 332 86.3898C332 96.7088 330.951 106.686 328.965 115.978Z" fill="#1E56A5"/>
<path d="M344.762 116.834L363 124V89.0707L307 45V111.078L320.538 118.244C327.755 114.407 336.538 113.617 344.762 116.834Z" stroke="#153E78" stroke-width="6" stroke-miterlimit="10" stroke-linecap="round" stroke-linejoin="round"/>
<path d="M296 177.304C296 177.304 302.883 178.769 312.781 188.573C316.364 192.123 321.996 199.335 326.148 204.801C327.855 207.055 331.495 205.928 331.552 203.111L332.917 143.102C333.202 141.412 332.746 139.665 331.666 138.369L316.762 120L296 177.304Z" fill="#609AED"/>
<path opacity="0.72" d="M331.559 205C328.2 204.545 325.667 201.761 325.608 198.466L324.96 142.216C325.254 140.511 324.783 138.75 323.663 137.443L314 125.795L316.18 120L331.618 138.523C332.737 139.886 333.209 141.591 332.914 143.295L331.559 205Z" fill="#1E56A5"/>
<path opacity="0.72" d="M296 177.848L316.755 120L325 130.295C320.565 147.36 313.571 164.708 304.131 182C299.127 178.53 296 177.848 296 177.848Z" fill="#1E56A5"/>
<path d="M296 177.304C296 177.304 302.883 178.769 312.781 188.573C316.364 192.123 321.996 199.335 326.148 204.801C327.855 207.055 331.495 205.928 331.552 203.111L332.917 143.102C333.202 141.412 332.746 139.665 331.666 138.369L316.762 120L296 177.304Z" stroke="#153E78" stroke-width="6" stroke-miterlimit="10" stroke-linecap="round" stroke-linejoin="round"/>
<path d="M295.851 209.47C296.48 202.797 295.566 196.517 284.141 179.977C282.256 177.341 277.744 177.341 275.859 179.977C264.434 196.574 263.52 202.853 264.149 209.47C264.263 210.311 265.805 211.264 266.776 210.928C273.345 207.62 286.655 207.62 293.224 210.928C294.195 211.264 295.737 210.367 295.851 209.47Z" fill="#3680E8"/>
<g opacity="0.32">
<g opacity="0.32">
<g opacity="0.32">
<path opacity="0.32" d="M269.811 209.803C269.188 203.061 270.094 196.714 281.427 179.999C281.767 179.489 282.22 179.092 282.673 178.809C280.52 177.392 277.234 177.789 275.704 179.999C264.371 196.771 263.465 203.117 264.088 209.803C264.201 210.653 265.731 211.617 266.694 211.277C267.658 210.823 268.734 210.37 269.868 210.03C269.868 209.973 269.811 209.917 269.811 209.803Z" fill="#EDB460"/>
</g>
<g opacity="0.32">
<path opacity="0.32" d="M282.673 208.897C286.583 209.18 290.266 209.974 292.929 211.277C293.779 211.617 295.139 210.823 295.479 210.03C291.739 208.954 287.093 208.557 282.673 208.897Z" fill="#EDB460"/>
</g>
</g>
</g>
<path d="M277.687 180C277.517 179.773 277.347 179.603 277.177 179.433C279.274 177.336 283.183 177.563 284.883 180C296.216 196.772 297.122 203.117 296.499 209.804C296.386 210.654 294.856 211.617 293.892 211.277C292.589 210.597 291.003 210.087 289.303 209.691C289.926 203.005 288.963 196.658 277.687 180Z" fill="#3680E8"/>
<path d="M295.851 209.47C296.48 202.797 295.566 196.517 284.141 179.977C282.256 177.341 277.744 177.341 275.859 179.977C264.434 196.574 263.52 202.853 264.149 209.47C264.263 210.311 265.805 211.264 266.776 210.928C273.345 207.62 286.655 207.62 293.224 210.928C294.195 211.264 295.737 210.367 295.851 209.47Z" stroke="#153E78" stroke-width="6" stroke-miterlimit="10" stroke-linecap="round" stroke-linejoin="round"/>
<path d="M292.835 189C319.589 145.489 329.302 102.768 323.281 67.1574C318.055 36.2311 301.242 13.9394 279.998 0C258.753 13.9394 241.94 36.2311 236.714 67.1574C230.693 102.768 240.463 145.489 267.16 189H292.835Z" fill="#609AED"/>
<path opacity="0.23" d="M256.931 68.08C260.321 39.9403 269.135 17.5873 281 0.851C280.605 0.567334 280.153 0.283667 279.757 0C258.626 14.0131 241.903 36.4228 236.705 67.5127C230.716 103.311 240.434 146.259 266.988 190H272.356C257.609 146.259 252.638 104.219 256.931 68.08Z" fill="#EDB460"/>
<path opacity="0.37" d="M323.264 67.2727C318.042 36.3636 301.287 14.0341 280 0C283.959 6.30682 289.008 15.3977 293.254 26.9318C301.001 47.8977 301.861 65.1705 302.32 76.0227C304.386 124.83 285.508 178.807 281.549 190H292.509C319.534 146.136 329.346 103.125 323.264 67.2727Z" fill="#1E56A5"/>
<path opacity="0.72" d="M323.269 67.1574C318.004 36.2311 301.064 13.9394 279.66 0C279.087 0.338609 278.572 0.733666 278 1.07227C286.127 7.33653 292.307 14.0523 297 20.4858C339.122 78.275 298.717 164.789 293.166 176.246C292.937 168.458 291.907 158.807 288.988 148.028C287.1 141.143 284.81 135.105 282.521 129.969C281.663 149.101 280.804 168.232 279.946 187.363H287.042C286.871 187.928 286.699 188.436 286.47 189H292.479C319.549 145.489 329.335 102.768 323.269 67.1574Z" fill="#1E56A5"/>
<path opacity="0.32" d="M243.887 76.8011C244.689 67.7573 247.667 38.3652 266.051 14.2297C268.972 10.4426 273.324 5.29899 272.981 5.01637C272.465 4.56418 262.386 13.5514 255.227 23.1039C246.235 35.0303 239.649 49.6698 236.728 66.966C230.657 102.632 240.508 145.42 267.426 189H269.774C262.386 174.473 257.518 161.36 254.196 151.016C252.02 144.064 248.182 131.742 245.777 115.237C244.231 104.158 242.513 92.2885 243.887 76.8011Z" fill="#EDB460"/>
<path opacity="0.72" d="M282.5 89C291.06 89 298 82.0609 298 73.5C298 64.9397 291.06 58 282.5 58C273.94 58 267 64.9397 267 73.5C267 82.0609 273.94 89 282.5 89Z" fill="#1E56A5" stroke="#1E56A5" stroke-width="6" stroke-miterlimit="10" stroke-linecap="round" stroke-linejoin="round"/>
<path d="M292.835 189C319.589 145.489 329.302 102.768 323.281 67.1574C318.055 36.2311 301.242 13.9394 279.998 0C258.753 13.9394 241.94 36.2311 236.714 67.1574C230.693 102.768 240.463 145.489 267.16 189H292.835Z" stroke="#153E78" stroke-width="6" stroke-miterlimit="10" stroke-linecap="round" stroke-linejoin="round"/>
<path d="M294.798 72.9824C296.168 64.5341 290.431 56.5734 281.983 55.2026C273.534 53.8312 265.573 59.5686 264.203 68.017C262.831 76.4659 268.569 84.426 277.017 85.7974C285.466 87.1688 293.426 81.4314 294.798 72.9824Z" fill="#CFE1FA"/>
<path opacity="0.93" d="M277.5 79C282.746 79 287 74.9703 287 70C287 65.0297 282.746 61 277.5 61C272.254 61 268 65.0297 268 70C268 74.9703 272.254 79 277.5 79Z" fill="#92BAF2"/>
<path d="M294.798 72.9824C296.168 64.5341 290.431 56.5734 281.983 55.2026C273.534 53.8312 265.573 59.5686 264.203 68.017C262.831 76.4659 268.569 84.426 277.017 85.7974C285.466 87.1689 293.426 81.4314 294.798 72.9824Z" stroke="#153E78" stroke-width="6" stroke-miterlimit="10" stroke-linecap="round" stroke-linejoin="round"/>
<path d="M279.528 216C280.149 216 280.656 215.323 280.713 214.42L284.943 145.372C285.394 138.264 283.138 131.664 279.81 130.085C279.585 129.972 279.359 129.972 279.19 130.085C275.862 131.608 273.606 138.208 274.057 145.372L278.287 214.42C278.4 215.323 278.964 216 279.528 216Z" fill="#1E56A5"/>
<path opacity="0.74" d="M279.528 216C280.149 216 280.656 215.323 280.713 214.42L284.943 145.372C285.394 138.264 283.138 131.664 279.81 130.085C279.585 129.972 279.359 129.972 279.19 130.085C275.862 131.608 273.606 138.208 274.057 145.372L278.287 214.42C278.4 215.323 278.964 216 279.528 216Z" fill="#1E56A5"/>
<g opacity="0.53">
<g opacity="0.53">
<g opacity="0.53">
<path opacity="0.53" d="M279.5 129.683C276.157 131.213 273.89 137.843 274.344 145.039L278.593 214.394C278.65 215.13 278.99 215.754 279.443 215.924V129.683H279.5Z" fill="#EDB460"/>
</g>
<g opacity="0.53">
<path opacity="0.53" d="M279.5 129.683H280.123C279.897 129.57 279.67 129.57 279.5 129.683Z" fill="#EDB460"/>
</g>
</g>
</g>
<path d="M279.528 216C280.149 216 280.656 215.323 280.713 214.42L284.943 145.372C285.394 138.264 283.138 131.664 279.81 130.085C279.585 129.972 279.359 129.972 279.19 130.085C275.862 131.608 273.606 138.208 274.057 145.372L278.287 214.42C278.4 215.323 278.964 216 279.528 216Z" stroke="#153E78" stroke-width="6" stroke-miterlimit="10" stroke-linecap="round" stroke-linejoin="round"/>
<path d="M363.052 134C357.317 125.625 354 115.722 354 105.141C354 91.7294 359.229 79.45 367.944 70C376.659 79.45 381.944 91.7294 382 105.141C382 115.779 378.683 125.625 373.004 134H363.052Z" fill="#609AED"/>
<path d="M363.052 134C357.317 125.625 354 115.722 354 105.141C354 91.7294 359.229 79.45 367.944 70C376.659 79.45 381.944 91.7294 382 105.141C382 115.779 378.683 125.625 373.004 134H363.052Z" fill="#609AED"/>
<path opacity="0.23" d="M367.035 70C367.709 70.735 368.382 71.5265 369 72.318C363.161 81.364 359.793 91.9929 359.737 103.3C359.737 114.495 361.421 124.954 367.147 134H361.982C356.312 125.633 353 115.739 353 105.166C353 91.7102 358.277 79.4417 367.035 70Z" fill="#EDB460"/>
<path opacity="0.32" d="M367.313 70C367.542 70.2261 367.771 70.5088 368 70.7915C361.302 80.5724 357.466 92.0495 357.408 104.375C357.408 115.06 360.328 125.124 365.424 134H362.16C356.378 125.633 353 115.739 353 105.166C353 91.7102 358.382 79.4417 367.313 70Z" fill="#EDB460"/>
<path opacity="0.37" d="M382 105.11C382 91.7103 376.723 79.4982 367.965 70C367.291 70.735 366.618 71.5265 366 72.318C371.839 81.364 375.207 91.9929 375.263 103.3C375.263 114.495 372.007 124.954 366.281 134H373.018C378.688 125.576 382 115.682 382 105.11Z" fill="#1E56A5"/>
<path opacity="0.72" d="M382 105.11C382 91.7103 376.618 79.4982 367.687 70C367.458 70.2261 367.229 70.5088 367 70.7915C373.698 80.5724 377.534 92.0495 377.592 104.375C377.592 115.06 374.672 125.124 369.576 134H372.84C378.622 125.576 382 115.682 382 105.11Z" fill="#1E56A5"/>
<path opacity="0.37" d="M367.965 70C367.291 70.735 366.618 71.5265 366 72.318C371.839 81.364 375.207 91.9929 375.263 103.3C375.263 114.495 372.007 124.954 366.281 134H373.018C378.688 125.633 382 115.739 382 105.166C382 91.7102 376.723 79.4417 367.965 70Z" fill="#1E56A5"/>
<path opacity="0.72" d="M367.687 70C367.458 70.2261 367.229 70.5088 367 70.7915C373.698 80.5724 377.534 92.0495 377.592 104.375C377.592 115.06 374.672 125.124 369.576 134H372.84C378.622 125.633 382 115.739 382 105.166C382 91.7102 376.618 79.4417 367.687 70Z" fill="#1E56A5"/>
<path d="M375 80C372.898 76.4088 370.398 73.0939 367.5 70C364.602 73.0387 362.102 76.4088 360 80H375Z" fill="#153E78"/>
<path d="M363.052 134C357.317 125.625 354 115.722 354 105.141C354 91.7294 359.229 79.45 367.944 70C376.659 79.45 381.944 91.7294 382 105.141C382 115.779 378.683 125.625 373.004 134H363.052Z" stroke="#153E78" stroke-width="6" stroke-miterlimit="10" stroke-linecap="round" stroke-linejoin="round"/>
<path d="M359 126H377" stroke="#153E78" stroke-width="4" stroke-miterlimit="10" stroke-linecap="round" stroke-linejoin="round"/>
<path opacity="0.41" d="M262 17C262 17 265.866 11.0349 279 1C272.916 9.08363 271.722 14.1568 271.324 14.547C267.458 15.2718 262 17 262 17Z" fill="white"/>
<path d="M89.0776 63.3682C88.1659 73.2277 108.238 50.5262 108.238 50.5262C108.238 50.5262 118.821 72.1815 122.662 67.3029C128.839 59.4581 119.61 34.3386 109.801 32.4705C100.299 30.6607 89.9892 53.5086 89.0776 63.3682Z" fill="#ECF4FF"/>
<path d="M387.862 265.112C393.651 273.145 393.873 242.843 393.873 242.843C393.873 242.843 416.077 252.219 415.769 246.017C415.273 236.045 391.813 223.168 383.191 228.202C374.837 233.08 382.072 257.079 387.862 265.112Z" fill="#ECF4FF"/>
<path d="M155.334 199.995C149.614 208.078 178.348 198.454 178.348 198.454C178.348 198.454 176.685 222.499 182.451 220.195C191.723 216.49 196.29 190.121 188.73 183.599C181.405 177.28 161.053 191.913 155.334 199.995Z" fill="#ECF4FF"/>
<path d="M401.879 41.5673C400.967 51.4268 421.039 28.7253 421.039 28.7253C421.039 28.7253 431.622 50.3806 435.463 45.502C441.64 37.6572 432.411 12.5377 422.602 10.6696C413.1 8.85978 402.79 31.7077 401.879 41.5673Z" fill="#ECF4FF"/>
</g>
<defs>
<clipPath id="clip0_262_3220">
<rect width="566" height="399" fill="white"/>
</clipPath>
</defs>
</svg>
