<svg width="352" height="291" viewBox="0 0 352 291" fill="none" xmlns="http://www.w3.org/2000/svg">
<g clip-path="url(#clip0_346_2053)">
<path opacity="0.2" d="M176.63 195.431C177.501 195.691 178.374 195.905 179.249 196.095C176.813 200.15 175.634 204.833 175.861 209.555C176.088 214.277 177.711 218.827 180.525 222.63C183.339 226.433 187.218 229.319 191.673 230.926C196.128 232.532 200.96 232.786 205.56 231.656C207.004 234.522 209.082 237.023 211.638 238.969C214.193 240.915 217.159 242.255 220.31 242.888C223.461 243.522 226.715 243.431 229.826 242.624C232.937 241.817 235.823 240.314 238.266 238.229C241.512 243.584 246.67 247.514 252.701 249.228C258.732 250.943 265.191 250.315 270.777 247.471C276.364 244.627 280.664 239.778 282.814 233.899C284.964 228.02 284.804 221.546 282.367 215.779C283.102 216.056 283.851 216.318 284.617 216.547C289.578 218.034 294.809 218.395 299.928 217.604C305.047 216.813 309.924 214.889 314.202 211.975C318.48 209.06 322.051 205.228 324.653 200.758C327.256 196.289 328.824 191.295 329.243 186.143C329.662 180.991 328.922 175.81 327.076 170.98C325.231 166.15 322.326 161.793 318.576 158.227C314.825 154.662 310.323 151.979 305.4 150.374C300.476 148.768 295.255 148.282 290.118 148.951C289.45 143.734 287.425 138.783 284.246 134.59C281.066 130.396 276.842 127.106 271.994 125.046C267.146 122.986 261.841 122.228 256.609 122.847C251.376 123.467 246.397 125.442 242.166 128.576C236.505 124.669 229.618 122.943 222.779 123.716C215.941 124.488 209.615 127.709 204.973 132.78C200.77 130.169 196.056 128.484 191.147 127.84C186.238 127.195 181.248 127.604 176.511 129.041C171.773 130.477 167.398 132.907 163.679 136.168C159.959 139.43 156.981 143.447 154.943 147.95C152.906 152.453 151.857 157.339 151.865 162.28C151.874 167.222 152.941 172.104 154.994 176.6C157.047 181.096 160.04 185.103 163.771 188.351C167.502 191.599 171.885 194.014 176.628 195.433L176.63 195.431Z" fill="#4C75E0"/>
<path opacity="0.2" d="M179.157 33.0247C178.247 33.0247 177.349 33.071 176.457 33.1376C177.623 28.5556 177.404 23.7316 175.827 19.2738C174.25 14.8159 171.386 10.9236 167.596 8.08757C163.806 5.25151 159.26 3.59858 154.53 3.33713C149.8 3.07568 145.099 4.21741 141.018 6.61841C138.81 4.28736 136.1 2.48812 133.092 1.35686C130.084 0.225606 126.858 -0.208029 123.657 0.0887766C120.457 0.385583 117.366 1.40505 114.618 3.07003C111.871 4.73501 109.539 7.00187 107.799 9.69905C103.148 5.50121 97.0768 3.21616 90.8064 3.30327C84.5359 3.39038 78.5309 5.84321 73.9987 10.1686C69.4665 14.4941 66.743 20.3714 66.3759 26.619C66.0087 32.8667 68.0251 39.0214 72.0196 43.8459C71.2332 43.7928 70.4422 43.7561 69.6433 43.7561C64.4642 43.7555 59.3504 44.9104 54.676 47.1362C50.0017 49.3621 45.8851 52.6026 42.6273 56.6207C39.3696 60.6388 37.0531 65.3329 35.8473 70.3596C34.6416 75.3862 34.5771 80.6183 35.6585 85.6731C36.7399 90.7279 38.9399 95.4774 42.0976 99.5743C45.2553 103.671 49.2908 107.012 53.9088 109.352C58.5268 111.692 63.6106 112.972 68.7882 113.099C73.9658 113.225 79.1063 112.195 83.8337 110.084C85.9756 114.888 89.34 119.05 93.5927 122.155C97.8454 125.26 102.838 127.201 108.075 127.784C113.312 128.367 118.611 127.573 123.445 125.479C128.278 123.386 132.479 120.067 135.63 115.851C142.176 117.971 149.27 117.65 155.598 114.949C161.926 112.248 167.058 107.35 170.044 101.162C174.822 102.459 179.823 102.722 184.711 101.933C189.6 101.144 194.263 99.321 198.387 96.587C202.512 93.8529 206.004 90.2705 208.629 86.0799C211.253 81.8892 212.95 77.1872 213.605 72.2888C214.26 67.3904 213.859 62.4089 212.427 57.678C210.996 52.9472 208.568 48.5762 205.306 44.8582C202.044 41.1401 198.023 38.1608 193.513 36.1199C189.004 34.079 184.109 33.0237 179.157 33.0247Z" fill="#4C75E0"/>
<path d="M201.471 209.128C201.438 216.568 198.453 223.692 193.169 228.942C187.886 234.191 180.734 237.138 173.278 237.138C165.823 237.138 158.671 234.191 153.387 228.942C148.103 223.692 145.118 216.568 145.085 209.128H201.471Z" fill="white" stroke="#2D2D2D" stroke-width="2" stroke-linecap="round" stroke-linejoin="round"/>
<path d="M201.468 209.128C201.468 216.589 198.498 223.745 193.211 229.021C187.924 234.297 180.754 237.261 173.277 237.261C165.801 237.261 158.631 234.297 153.344 229.021C148.057 223.745 145.087 216.589 145.087 209.128" fill="white"/>
<path d="M201.468 209.128C201.468 216.589 198.498 223.745 193.211 229.021C187.924 234.297 180.754 237.261 173.277 237.261C165.801 237.261 158.631 234.297 153.344 229.021C148.057 223.745 145.087 216.589 145.087 209.128" stroke="#2D2D2D" stroke-width="2" stroke-linecap="round" stroke-linejoin="round"/>
<path d="M298.733 209.128V279.318C298.732 282.267 297.557 285.095 295.466 287.179C293.376 289.264 290.542 290.435 287.587 290.435H58.9672C56.0121 290.435 53.1779 289.264 51.0878 287.179C48.9977 285.095 47.8228 282.267 47.8213 279.318V209.128H145.085C145.118 216.568 148.103 223.692 153.387 228.942C158.67 234.191 165.822 237.138 173.278 237.138C180.733 237.138 187.885 234.191 193.169 228.942C198.452 223.692 201.437 216.568 201.471 209.128H298.733Z" fill="white"/>
<path d="M287.588 291H58.9675C55.8631 290.997 52.8867 289.766 50.6911 287.575C48.4955 285.385 47.2601 282.415 47.2559 279.317V209.128C47.2559 208.978 47.3155 208.835 47.4216 208.729C47.5277 208.623 47.6716 208.563 47.8216 208.563H145.085C145.235 208.563 145.379 208.623 145.485 208.729C145.591 208.835 145.651 208.978 145.651 209.128C145.651 216.44 148.561 223.453 153.743 228.624C158.924 233.794 165.951 236.699 173.278 236.699C180.605 236.699 187.632 233.794 192.813 228.624C197.994 223.453 200.905 216.44 200.905 209.128C200.905 208.978 200.964 208.835 201.071 208.729C201.177 208.623 201.321 208.563 201.471 208.563H298.733C298.883 208.563 299.027 208.623 299.133 208.729C299.24 208.835 299.299 208.978 299.299 209.128V279.317C299.295 282.415 298.06 285.385 295.864 287.575C293.669 289.766 290.692 290.997 287.588 291ZM48.3869 209.693V279.317C48.3907 282.116 49.5068 284.799 51.4903 286.777C53.4738 288.756 56.1626 289.868 58.9669 289.871H287.588C290.392 289.868 293.081 288.756 295.065 286.777C297.048 284.799 298.164 282.116 298.168 279.317V209.693H202.031C201.885 217.207 198.792 224.365 193.415 229.627C188.039 234.89 180.808 237.838 173.278 237.838C165.747 237.838 158.516 234.89 153.14 229.627C147.763 224.365 144.67 217.207 144.524 209.693H48.3869Z" fill="#2D2D2D"/>
<path d="M298.734 209.128H201.471C201.437 216.568 198.452 223.692 193.169 228.942C187.885 234.191 180.733 237.138 173.278 237.138C165.822 237.138 158.67 234.191 153.387 228.942C148.103 223.692 145.118 216.568 145.085 209.128H47.8213L118.929 164.487H230.472L298.734 209.128Z" fill="#4C75E0"/>
<path opacity="0.6" d="M298.734 209.128H201.471C201.437 216.568 198.452 223.692 193.169 228.942C187.885 234.191 180.733 237.138 173.278 237.138C165.822 237.138 158.67 234.191 153.387 228.942C148.103 223.692 145.118 216.568 145.085 209.128H47.8213L118.929 164.487H230.472L298.734 209.128Z" fill="white"/>
<path d="M173.278 237.828C165.751 237.82 158.527 234.871 153.152 229.612C147.778 224.353 144.681 217.203 144.524 209.693H47.8209C47.6981 209.693 47.5786 209.653 47.4805 209.579C47.3824 209.506 47.311 209.402 47.277 209.284C47.243 209.167 47.2483 209.041 47.2921 208.927C47.336 208.812 47.4159 208.715 47.5199 208.65L118.627 164.01C118.717 163.953 118.822 163.923 118.928 163.923H230.472C230.582 163.923 230.69 163.955 230.782 164.015L299.043 208.656C299.145 208.723 299.223 208.82 299.264 208.934C299.306 209.049 299.31 209.173 299.275 209.29C299.24 209.406 299.169 209.508 299.071 209.581C298.973 209.653 298.855 209.693 298.733 209.693H202.031C201.874 217.202 198.777 224.353 193.403 229.612C188.028 234.87 180.804 237.82 173.278 237.828ZM49.783 208.563H145.085C145.235 208.563 145.379 208.623 145.485 208.729C145.591 208.835 145.651 208.978 145.651 209.128C145.651 216.44 148.561 223.453 153.742 228.624C158.923 233.794 165.95 236.699 173.278 236.699C180.605 236.699 187.632 233.794 192.813 228.624C197.994 223.453 200.905 216.44 200.905 209.128C200.905 208.978 200.964 208.835 201.07 208.729C201.177 208.623 201.32 208.563 201.47 208.563H296.837L230.302 165.052H119.091L49.783 208.563Z" fill="#2D2D2D"/>
<path d="M80.585 168.118C80.4813 168.117 80.3796 168.089 80.291 168.035C80.2025 167.981 80.1305 167.904 80.0829 167.812C80.0353 167.72 80.014 167.617 80.0212 167.514C80.0284 167.41 80.0639 167.311 80.1239 167.227C80.2286 167.079 90.4539 152.326 79.0387 138.877C77.0182 136.483 74.4975 134.56 71.6534 133.241C68.8092 131.923 65.7105 131.241 62.5745 131.245H62.424C63.5081 135.003 63.3146 138.345 61.7796 140.908C61.1256 142.066 60.1604 143.019 58.9929 143.66C57.8254 144.3 56.5018 144.603 55.1713 144.533C54.0699 144.443 53.0189 144.034 52.1467 143.357C51.2746 142.68 50.6192 141.764 50.2609 140.72C49.0054 137.452 50.3175 134.284 53.7755 132.241C55.9661 131.035 58.4004 130.337 60.8981 130.197C60.0857 128.047 59.0291 125.997 57.749 124.087C53.6273 117.805 46.1154 113.456 37.1382 112.156C29.5312 111.054 22.2406 112.351 18.5625 115.46C18.448 115.557 18.2996 115.605 18.1501 115.592C18.0005 115.58 17.862 115.509 17.765 115.395C17.668 115.28 17.6204 115.132 17.6328 114.983C17.6451 114.834 17.7164 114.695 17.8309 114.599C21.7455 111.29 29.3875 109.891 37.3011 111.041C46.5986 112.388 54.3962 116.919 58.6961 123.471C60.0902 125.549 61.2242 127.79 62.0727 130.142C65.455 130.062 68.8124 130.739 71.8977 132.125C74.983 133.51 77.7175 135.569 79.8998 138.149C91.8904 152.276 81.1542 167.728 81.0444 167.882C80.9921 167.955 80.9231 168.014 80.8432 168.055C80.7633 168.096 80.6748 168.117 80.585 168.118ZM61.2647 131.286C58.8432 131.39 56.4781 132.049 54.3537 133.214C51.3687 134.977 50.2631 137.566 51.3194 140.317C51.6055 141.16 52.1317 141.901 52.8335 142.45C53.5353 142.999 54.3823 143.332 55.2709 143.409C56.3896 143.459 57.5002 143.197 58.4785 142.653C59.4567 142.109 60.2642 141.305 60.8104 140.329C62.2209 137.975 62.3499 134.845 61.2647 131.286Z" fill="#2D2D2D"/>
<path d="M8.79891 124.567C7.83835 124.854 6.80364 124.755 5.91508 124.291C5.02652 123.828 4.35431 123.037 4.04158 122.086C3.72884 121.135 3.80029 120.1 4.24071 119.202C4.68113 118.303 5.45573 117.611 6.39958 117.274C7.34342 116.936 8.38196 116.98 9.29405 117.395C10.2062 117.811 10.9198 118.565 11.2829 119.498C11.6461 120.43 11.6302 121.467 11.2385 122.388C10.8468 123.309 10.1103 124.041 9.18591 124.429C9.05944 124.482 8.93026 124.528 8.79891 124.567ZM6.91769 118.292C6.39147 118.449 5.9255 118.762 5.58133 119.19C5.23715 119.617 5.03095 120.139 4.98996 120.685C4.94896 121.232 5.0751 121.778 5.35171 122.252C5.62832 122.726 6.0424 123.105 6.53927 123.339C7.03614 123.573 7.59243 123.651 8.13468 123.563C8.67694 123.474 9.17966 123.224 9.57646 122.845C9.97326 122.466 10.2455 121.975 10.3572 121.439C10.4689 120.902 10.4148 120.344 10.202 119.838C9.94378 119.22 9.46486 118.72 8.85808 118.434C8.2513 118.148 7.55985 118.098 6.91769 118.292Z" fill="#2D2D2D"/>
<path d="M8.79164 115.717C7.88207 115.988 6.90423 115.914 6.04614 115.509C5.18806 115.104 4.5103 114.396 4.14319 113.523C3.84886 112.823 3.76924 112.051 3.91439 111.305C4.05954 110.56 4.42294 109.874 4.95864 109.335C5.49433 108.795 6.17826 108.427 6.92393 108.275C7.6696 108.124 8.44352 108.197 9.14781 108.484C9.8521 108.772 10.4551 109.261 10.8806 109.891C11.3062 110.52 11.535 111.262 11.5383 112.021C11.5416 112.781 11.3192 113.524 10.8992 114.157C10.4792 114.79 9.8804 115.285 9.17863 115.579C9.05213 115.631 8.92296 115.678 8.79164 115.717ZM6.91268 109.442C6.82046 109.469 6.72993 109.502 6.63941 109.539C5.97543 109.817 5.44931 110.347 5.17675 111.013C4.90418 111.678 4.90748 112.424 5.18592 113.086C5.38888 113.569 5.72774 113.983 6.16149 114.278C6.59525 114.573 7.10532 114.736 7.63001 114.748C8.1547 114.759 8.67153 114.619 9.11798 114.344C9.56444 114.068 9.92139 113.67 10.1457 113.196C10.3699 112.723 10.4519 112.195 10.3817 111.676C10.3115 111.157 10.092 110.669 9.74996 110.272C9.40789 109.874 8.95781 109.585 8.45418 109.437C7.95054 109.29 7.41493 109.292 6.91212 109.442H6.91268Z" fill="#2D2D2D"/>
<path d="M7.69401 119.71C10.4725 119.71 12.7249 118.208 12.7249 116.356C12.7249 114.504 10.4725 113.003 7.69401 113.003C4.91551 113.003 2.66309 114.504 2.66309 116.356C2.66309 118.208 4.91551 119.71 7.69401 119.71Z" fill="white"/>
<path d="M9.91875 119.957C9.19751 120.17 8.44907 120.277 7.69693 120.275C4.55855 120.275 2.0991 118.558 2.09571 116.361C2.09231 114.164 4.55063 112.442 7.68845 112.439C9.05648 112.413 10.4024 112.785 11.5612 113.512C12.0815 113.782 12.5176 114.19 12.822 114.69C13.1265 115.191 13.2878 115.765 13.2883 116.351C13.2888 116.936 13.1286 117.511 12.825 118.012C12.5214 118.513 12.0861 118.921 11.5663 119.193C11.058 119.528 10.5028 119.785 9.91875 119.957ZM5.81175 113.839C4.29999 114.29 3.2284 115.265 3.22896 116.36C3.22896 117.872 5.27539 119.147 7.69863 119.146C8.84337 119.169 9.97028 118.86 10.9417 118.255C11.306 118.088 11.6145 117.819 11.8306 117.482C12.0468 117.145 12.1614 116.753 12.161 116.352C12.1606 115.952 12.0451 115.56 11.8283 115.224C11.6115 114.887 11.3024 114.619 10.9377 114.452C9.96559 113.849 8.83844 113.542 7.6941 113.568C7.05682 113.567 6.42272 113.658 5.81175 113.839Z" fill="#2D2D2D"/>
<path d="M8.92777 119.608L8.80896 113.087L7.18403 113.021L7.07031 119.684L8.92777 119.608Z" fill="#2D2D2D"/>
<path d="M1.01939 117.776C1.30624 117.776 1.53877 117.544 1.53877 117.258C1.53877 116.971 1.30624 116.739 1.01939 116.739C0.732537 116.739 0.5 116.971 0.5 117.258C0.5 117.544 0.732537 117.776 1.01939 117.776Z" fill="#2D2D2D"/>
<path d="M1.42466 115.002C1.71151 115.002 1.94405 114.769 1.94405 114.483C1.94405 114.197 1.71151 113.965 1.42466 113.965C1.13781 113.965 0.905273 114.197 0.905273 114.483C0.905273 114.769 1.13781 115.002 1.42466 115.002Z" fill="#2D2D2D"/>
<path d="M134.124 55.9404L247.274 107.432L212.87 182.726C212.335 183.897 211.356 184.807 210.149 185.258C208.941 185.708 207.604 185.661 206.431 185.127L102.126 137.661C100.953 137.127 100.041 136.15 99.5895 134.945C99.1384 133.74 99.1854 132.405 99.7202 131.234L134.124 55.9404Z" fill="#4C75E0"/>
<path d="M134.124 55.9404L247.274 107.432L212.87 182.726C212.335 183.897 211.356 184.807 210.149 185.258C208.941 185.708 207.604 185.661 206.431 185.127L102.126 137.661C100.953 137.127 100.041 136.15 99.5895 134.945C99.1384 133.74 99.1854 132.405 99.7202 131.234L134.124 55.9404Z" fill="white"/>
<path d="M208.444 186.13C207.668 186.13 206.901 185.963 206.195 185.64L101.891 138.174C100.583 137.577 99.5648 136.487 99.0613 135.142C98.5577 133.797 98.6095 132.307 99.2053 131L133.609 55.7056C133.64 55.6381 133.683 55.5773 133.738 55.5266C133.792 55.476 133.856 55.4366 133.926 55.4107C133.995 55.3847 134.07 55.3727 134.144 55.3754C134.218 55.378 134.291 55.3953 134.359 55.4262L247.508 106.917C247.576 106.947 247.637 106.991 247.688 107.045C247.739 107.099 247.778 107.163 247.805 107.232C247.831 107.302 247.843 107.376 247.841 107.45C247.838 107.524 247.821 107.597 247.791 107.665L213.384 182.96C212.951 183.904 212.255 184.706 211.38 185.268C210.504 185.83 209.485 186.129 208.444 186.13ZM134.404 56.6898L100.235 131.469C99.7637 132.503 99.7228 133.682 100.121 134.747C100.52 135.811 101.325 136.675 102.361 137.147L206.665 184.612C207.178 184.846 207.732 184.976 208.296 184.996C208.859 185.016 209.421 184.925 209.95 184.728C210.478 184.531 210.962 184.232 211.375 183.848C211.787 183.464 212.12 183.003 212.354 182.491L246.523 107.71L134.404 56.6898Z" fill="#2D2D2D"/>
<path d="M247.772 107.163L212.39 41.4361C211.874 40.4848 211.061 39.7275 210.075 39.2791C209.089 38.8307 207.983 38.7157 206.925 38.9517L134 55.391C133.906 55.4122 133.818 55.4572 133.747 55.5215C133.675 55.5859 133.62 55.6676 133.589 55.7588C133.558 55.85 133.55 55.9476 133.568 56.0425C133.585 56.1373 133.626 56.2262 133.688 56.3006L173.649 104.767C174.804 106.205 176.267 107.366 177.931 108.166C179.594 108.965 181.416 109.383 183.263 109.388H183.457L247.285 107.999C247.382 107.997 247.477 107.97 247.56 107.921C247.644 107.872 247.713 107.802 247.762 107.719C247.811 107.635 247.838 107.541 247.839 107.444C247.841 107.347 247.818 107.252 247.772 107.167V107.163Z" fill="#2D2D2D"/>
<path d="M154.837 116.63C156.803 116.63 158.397 115.039 158.397 113.077C158.397 111.114 156.803 109.523 154.837 109.523C152.87 109.523 151.276 111.114 151.276 113.077C151.276 115.039 152.87 116.63 154.837 116.63Z" fill="#2D2D2D"/>
<path d="M188.235 131.785C190.202 131.785 191.796 130.194 191.796 128.232C191.796 126.27 190.202 124.679 188.235 124.679C186.269 124.679 184.675 126.27 184.675 128.232C184.675 130.194 186.269 131.785 188.235 131.785Z" fill="#2D2D2D"/>
<path d="M200.43 129.644C198.678 129.644 196.945 129.271 195.347 128.552C193.749 127.832 192.323 126.782 191.163 125.47C190.003 124.158 189.136 122.616 188.619 120.944C188.102 119.272 187.947 117.51 188.165 115.774C188.187 115.629 188.265 115.497 188.382 115.408C188.5 115.319 188.648 115.279 188.795 115.297C188.941 115.316 189.075 115.39 189.167 115.506C189.259 115.621 189.302 115.768 189.287 115.914C189.071 117.64 189.261 119.393 189.84 121.033C190.42 122.673 191.374 124.156 192.627 125.365C193.88 126.574 195.398 127.475 197.061 127.997C198.723 128.519 200.484 128.648 202.205 128.374C202.354 128.351 202.505 128.387 202.627 128.475C202.748 128.563 202.83 128.695 202.853 128.843C202.877 128.991 202.841 129.142 202.753 129.264C202.665 129.385 202.532 129.466 202.384 129.49C201.738 129.592 201.085 129.644 200.43 129.644Z" fill="#2D2D2D"/>
<path d="M154.104 108.9C152.221 108.9 150.363 108.471 148.671 107.646C146.979 106.821 145.498 105.622 144.341 104.139C144.249 104.021 144.207 103.871 144.226 103.722C144.245 103.574 144.321 103.438 144.44 103.346C144.558 103.254 144.708 103.213 144.857 103.232C145.006 103.25 145.142 103.327 145.234 103.445C146.304 104.818 147.68 105.923 149.252 106.674C150.825 107.424 152.55 107.799 154.293 107.769C156.036 107.739 157.747 107.305 159.293 106.501C160.838 105.697 162.175 104.545 163.197 103.136C163.241 103.075 163.296 103.023 163.359 102.984C163.422 102.944 163.493 102.917 163.567 102.905C163.641 102.893 163.716 102.895 163.789 102.913C163.862 102.93 163.931 102.961 163.991 103.005C164.052 103.049 164.103 103.104 164.142 103.168C164.181 103.232 164.207 103.303 164.219 103.377C164.23 103.45 164.227 103.526 164.208 103.598C164.19 103.671 164.158 103.739 164.113 103.799C162.968 105.378 161.463 106.664 159.723 107.551C157.984 108.437 156.058 108.9 154.104 108.9Z" fill="#2D2D2D"/>
<path d="M171.485 155.19C171.36 155.19 171.238 155.148 171.139 155.071C171.04 154.995 170.969 154.887 170.938 154.766C170.018 151.221 167.948 148.079 165.052 145.83C162.156 143.581 158.596 142.351 154.926 142.332H154.836C151.538 142.327 148.313 143.305 145.577 145.143C145.453 145.223 145.301 145.251 145.156 145.222C145.011 145.192 144.883 145.106 144.8 144.983C144.717 144.86 144.686 144.71 144.714 144.565C144.741 144.419 144.825 144.29 144.946 144.205C147.869 142.243 151.313 141.197 154.836 141.203H154.932C158.851 141.224 162.654 142.538 165.747 144.94C168.84 147.342 171.05 150.698 172.034 154.484C172.071 154.629 172.049 154.783 171.973 154.912C171.897 155.041 171.773 155.135 171.627 155.172C171.581 155.184 171.533 155.19 171.485 155.19Z" fill="#2D2D2D"/>
<path d="M255.451 151.53C255.33 151.53 255.212 151.491 255.114 151.419C255.017 151.348 254.945 151.246 254.91 151.131C253.032 144.137 252.531 136.847 253.435 129.663C254.897 119.161 260.701 105.378 280.044 99.3421C282.766 98.4691 285.557 97.8304 288.388 97.4331C289.299 91.7523 292.767 85.5899 300.52 81.341C318.944 71.2386 331.388 80.3027 331.511 80.3953C331.57 80.4398 331.62 80.4955 331.658 80.5593C331.696 80.6231 331.721 80.6937 331.731 80.7671C331.742 80.8405 331.738 80.9153 331.719 80.9871C331.701 81.059 331.669 81.1265 331.624 81.1858C331.579 81.2451 331.523 81.2951 331.46 81.3328C331.396 81.3706 331.325 81.3955 331.251 81.4059C331.178 81.4164 331.103 81.4124 331.031 81.394C330.959 81.3756 330.891 81.3432 330.832 81.2987C330.714 81.2106 318.822 72.5943 301.066 82.3314C293.82 86.3047 290.504 92.0075 289.56 97.3016C298.092 96.4631 302.177 99.3032 304.011 101.449C305.146 102.739 305.875 104.333 306.108 106.034C306.341 107.734 306.067 109.466 305.321 111.012C304.732 112.262 303.776 113.304 302.581 114C301.385 114.697 300.006 115.015 298.625 114.913C293.861 114.635 289.919 110.634 288.582 104.723C288.141 102.721 288.024 100.663 288.234 98.6245C285.572 99.0061 282.945 99.6086 280.383 100.426C265.308 105.13 256.62 115.021 254.557 129.824C253.672 136.845 254.16 143.971 255.993 150.806C256.019 150.891 256.024 150.98 256.009 151.067C255.994 151.154 255.959 151.236 255.907 151.307C255.854 151.378 255.786 151.436 255.707 151.476C255.628 151.516 255.54 151.536 255.452 151.536L255.451 151.53ZM289.387 98.48C289.152 100.479 289.253 102.504 289.685 104.47C290.908 109.878 294.443 113.533 298.692 113.782C299.849 113.865 301.005 113.597 302.008 113.012C303.01 112.428 303.812 111.555 304.308 110.507C304.955 109.159 305.189 107.65 304.983 106.17C304.778 104.689 304.14 103.301 303.15 102.179C300.504 99.0813 295.676 97.8301 289.387 98.48Z" fill="#2D2D2D"/>
<path d="M344.691 86.0994C343.929 86.0979 343.183 85.8814 342.539 85.4748C341.895 85.0683 341.379 84.4883 341.051 83.8017C340.723 83.1152 340.597 82.3501 340.686 81.5948C340.775 80.8395 341.077 80.1248 341.555 79.5331C342.034 78.9415 342.671 78.497 343.392 78.251C344.113 78.005 344.889 77.9675 345.631 78.1428C346.372 78.3182 347.049 78.6992 347.583 79.242C348.117 79.7847 348.486 80.4671 348.648 81.2102C348.775 81.7993 348.768 82.4094 348.629 82.9956C348.489 83.5819 348.219 84.1295 347.84 84.5984C347.461 85.0672 346.981 85.4453 346.436 85.7051C345.891 85.9648 345.295 86.0995 344.691 86.0994ZM344.7 79.1629C344.265 79.1632 343.837 79.2605 343.445 79.4476C343.053 79.6348 342.708 79.907 342.436 80.2445C342.163 80.5819 341.97 80.9759 341.87 81.3976C341.77 81.8193 341.765 82.2581 341.857 82.6817C341.974 83.2169 342.239 83.7083 342.624 84.0992C343.008 84.49 343.496 84.7644 344.03 84.8905C344.564 85.0166 345.123 84.9893 345.642 84.8118C346.161 84.6343 346.62 84.3139 346.964 83.8875C347.308 83.4611 347.525 82.9461 347.589 82.4021C347.652 81.8581 347.56 81.3072 347.324 80.8131C347.087 80.319 346.715 79.9019 346.25 79.6099C345.786 79.3179 345.248 79.1629 344.7 79.1629Z" fill="#2D2D2D"/>
<path d="M342.987 95.3151C341.948 95.3159 340.949 94.9192 340.195 94.2067C339.44 93.4943 338.988 92.5203 338.932 91.4853C338.875 90.4504 339.219 89.4331 339.891 88.6431C340.563 87.8531 341.514 87.3504 342.546 87.2385C343.579 87.1266 344.615 87.4141 345.441 88.0417C346.268 88.6693 346.822 89.5893 346.989 90.6123C347.157 91.6353 346.925 92.6834 346.341 93.5408C345.758 94.3982 344.867 94.9997 343.852 95.2214C343.568 95.2838 343.278 95.3152 342.987 95.3151ZM343.002 88.378C342.793 88.3781 342.584 88.4006 342.379 88.4452C341.657 88.6036 341.022 89.0324 340.607 89.6434C340.191 90.2544 340.026 91.0011 340.145 91.7299C340.265 92.4587 340.659 93.1141 341.248 93.5613C341.837 94.0085 342.575 94.2135 343.311 94.1341C344.047 94.0546 344.724 93.6969 345.203 93.1343C345.683 92.5718 345.928 91.8473 345.888 91.1099C345.848 90.3725 345.527 89.6783 344.99 89.1702C344.453 88.662 343.742 88.3785 343.002 88.378Z" fill="#2D2D2D"/>
<path d="M349.063 87.7481C349.42 85.8195 347.363 83.8241 344.47 83.2913C341.576 82.7585 338.942 83.89 338.585 85.8186C338.229 87.7471 340.285 89.7425 343.178 90.2753C346.072 90.8081 348.706 89.6767 349.063 87.7481Z" fill="white"/>
<path d="M344.608 90.9735C344.095 90.9727 343.584 90.9253 343.08 90.8318C341.657 90.5963 340.334 89.9515 339.274 88.9764C338.788 88.5983 338.416 88.0945 338.197 87.5199C337.978 86.9452 337.922 86.3216 338.033 85.7171C338.145 85.1126 338.421 84.5503 338.831 84.0914C339.241 83.6325 339.769 83.2945 340.358 83.1144C341.703 82.6071 343.163 82.4766 344.577 82.7372C345.992 82.9977 347.308 83.6393 348.384 84.5926C348.87 84.9707 349.242 85.4745 349.461 86.0491C349.679 86.6238 349.736 87.2473 349.624 87.8518C349.512 88.4564 349.236 89.0187 348.827 89.4776C348.417 89.9365 347.889 90.2745 347.3 90.4546C346.447 90.8072 345.531 90.9837 344.608 90.9735ZM343.045 83.7242C342.277 83.7144 341.515 83.8598 340.804 84.1516C340.387 84.2578 340.009 84.4809 339.715 84.7947C339.421 85.1084 339.224 85.4996 339.145 85.922C339.067 86.3443 339.112 86.7802 339.274 87.178C339.437 87.5758 339.71 87.9189 340.061 88.1667C340.976 88.9638 342.09 89.5005 343.284 89.7206C344.479 89.9406 345.711 89.8359 346.851 89.4174C347.253 89.2832 347.615 89.051 347.905 88.7418C348.194 88.4326 348.402 88.0562 348.509 87.6467C348.555 87.2261 348.496 86.8006 348.336 86.4087C348.176 86.0168 347.921 85.6709 347.593 85.4023C346.693 84.5824 345.572 84.0422 344.369 83.8478C343.931 83.7666 343.488 83.7252 343.043 83.7242H343.045Z" fill="#2D2D2D"/>
<path d="M343.171 83.1621L342.033 89.975L343.712 90.3567L345.12 83.4405L343.171 83.1621Z" fill="#2D2D2D"/>
<path d="M349.991 90.4922C350.295 90.4922 350.541 90.2465 350.541 89.9434C350.541 89.6402 350.295 89.3945 349.991 89.3945C349.688 89.3945 349.441 89.6402 349.441 89.9434C349.441 90.2465 349.688 90.4922 349.991 90.4922Z" fill="#2D2D2D"/>
<path d="M350.95 87.6816C351.254 87.6816 351.5 87.4359 351.5 87.1328C351.5 86.8297 351.254 86.584 350.95 86.584C350.647 86.584 350.4 86.8297 350.4 87.1328C350.4 87.4359 350.647 87.6816 350.95 87.6816Z" fill="#2D2D2D"/>
</g>
<defs>
<clipPath id="clip0_346_2053">
<rect width="351" height="291" fill="white" transform="translate(0.5)"/>
</clipPath>
</defs>
</svg>
